<?xml version="1.0" standalone="no"?>
<!DOCTYPE svg PUBLIC "-//W3C//DTD SVG 20010904//EN"
 "http://www.w3.org/TR/2001/REC-SVG-20010904/DTD/svg10.dtd">
<svg version="1.0" xmlns="http://www.w3.org/2000/svg"
 width="1256.000000pt" height="359.000000pt" viewBox="0 0 1256.000000 359.000000"
 preserveAspectRatio="xMidYMid meet">
<metadata>
Created by potrace 1.16, written by Peter Selinger 2001-2019
</metadata>
<g transform="translate(0.000000,359.000000) scale(0.100000,-0.100000)"
fill="#000000" stroke="none">
<path d="M4648 2970 c-20 -5 -59 -23 -87 -40 -135 -84 -121 -233 29 -299 85
-37 159 -45 241 -26 84 19 124 41 168 90 76 87 36 199 -94 256 -55 25 -194 35
-257 19z"/>
<path d="M960 2921 c0 -5 13 -14 28 -20 63 -26 148 -124 232 -266 54 -91 325
-625 412 -810 132 -282 326 -684 334 -694 3 -4 247 -2 251 3 1 1 9 31 18 67 8
35 20 80 25 99 5 19 21 85 35 145 14 61 39 165 55 233 66 269 90 372 115 477
14 61 30 126 35 145 5 19 21 82 34 140 79 341 88 372 119 407 44 50 76 63 156
63 38 0 73 5 76 10 4 7 -82 10 -250 10 -168 0 -254 -3 -250 -10 3 -5 37 -10
75 -10 82 0 115 -13 131 -52 15 -37 9 -80 -41 -287 -23 -91 -50 -204 -61 -251
-11 -47 -31 -130 -44 -185 -13 -55 -36 -149 -50 -210 -45 -193 -49 -205 -59
-205 -6 1 -23 20 -37 43 -26 40 -57 100 -269 512 -164 319 -237 433 -341 530
-122 114 -164 125 -486 125 -134 0 -243 -4 -243 -9z"/>
<path d="M4920 2489 c-155 -20 -267 -29 -440 -36 -176 -8 -180 -8 -85 -13
l100 -5 3 -492 2 -493 30 0 c42 0 129 -35 170 -69 19 -15 46 -50 60 -77 22
-42 25 -62 24 -144 0 -75 -5 -105 -21 -140 -39 -83 -95 -120 -182 -120 -86 0
-93 36 -22 107 122 121 80 284 -85 333 -36 11 -48 10 -95 -7 -137 -51 -168
-211 -62 -332 80 -91 173 -127 328 -125 128 2 196 22 263 79 108 93 112 124
112 918 0 591 -1 627 -17 626 -10 -1 -47 -5 -83 -10z"/>
<path d="M6570 2489 c-30 -5 -84 -14 -120 -20 -36 -6 -157 -14 -270 -17 -173
-6 -190 -8 -110 -12 l95 -5 3 -455 c2 -389 0 -468 -14 -541 -19 -101 -60 -181
-107 -209 -37 -23 -48 -24 -99 -10 -31 9 -41 19 -65 68 l-28 57 -5 425 c-5
408 -6 427 -27 472 -69 150 -201 208 -472 208 -132 0 -179 -10 -111 -23 35 -7
73 -60 91 -127 8 -30 14 -189 18 -490 l6 -445 27 -50 c73 -138 209 -195 437
-182 78 5 104 11 156 36 69 34 143 95 164 135 8 14 18 26 23 26 4 0 8 -44 8
-98 l0 -99 323 -6 c195 -3 326 -2 331 4 6 5 -27 9 -87 9 l-97 0 0 680 c0 374
-3 679 -7 679 -5 -1 -33 -5 -63 -10z"/>
<path d="M9049 2496 c-7 -6 -311 -28 -499 -36 -140 -5 -154 -7 -72 -8 l102 -2
0 -655 0 -655 -101 0 c-55 0 -98 -3 -96 -7 6 -10 874 -9 883 0 4 4 -36 7 -89
7 l-97 0 0 505 c0 578 3 602 70 675 28 30 44 40 68 40 48 0 68 -54 39 -110
-75 -146 -66 -325 19 -370 16 -9 53 -15 88 -15 71 1 121 27 178 95 86 99 89
284 7 383 -43 52 -95 76 -183 84 -68 5 -80 3 -130 -21 -55 -27 -136 -106 -136
-132 0 -8 -4 -14 -10 -14 -6 0 -10 47 -10 120 0 93 -3 120 -13 120 -8 0 -16
-2 -18 -4z"/>
<path d="M3260 2484 c-141 -25 -327 -128 -419 -231 -57 -64 -104 -155 -132
-253 -27 -98 -27 -302 0 -400 55 -197 155 -313 357 -413 128 -64 168 -72 374
-72 207 0 246 8 367 72 184 97 276 194 336 353 49 130 48 388 0 520 -59 157
-155 259 -335 353 -118 62 -156 70 -348 73 -96 1 -186 0 -200 -2z m229 -19
c53 -27 109 -103 131 -174 53 -179 53 -825 0 -1000 -44 -147 -135 -205 -238
-152 -135 70 -172 213 -172 664 0 385 28 536 116 618 67 62 107 73 163 44z"/>
<path d="M7570 2483 c-25 -2 -74 -10 -110 -19 -361 -86 -538 -302 -540 -658 0
-201 50 -348 165 -475 64 -70 218 -160 340 -197 84 -26 361 -26 453 0 188 51
275 132 363 337 43 98 48 119 24 99 -8 -7 -15 -17 -15 -24 0 -6 -16 -42 -35
-81 -88 -179 -228 -275 -400 -275 -218 0 -339 133 -364 400 -6 63 -11 136 -11
163 l0 47 235 0 c436 0 581 34 637 148 18 39 20 55 14 130 -8 106 -37 170
-109 242 -127 126 -363 185 -647 163z m151 -34 c60 -43 94 -120 110 -255 14
-115 7 -259 -15 -301 -31 -60 -51 -67 -220 -67 l-151 -1 -3 90 c-5 132 15 348
38 412 24 68 63 121 104 139 39 18 99 10 137 -17z"/>
<path d="M10380 2484 c-60 -6 -162 -30 -235 -56 -276 -99 -420 -316 -418 -633
2 -293 118 -478 379 -608 122 -61 171 -71 344 -72 345 0 482 82 604 364 37 88
41 101 28 101 -4 0 -21 -30 -37 -67 -92 -215 -232 -323 -420 -323 -148 0 -259
67 -318 194 -32 68 -57 212 -57 332 l0 82 298 5 c387 7 474 24 549 111 37 41
48 93 38 182 -19 180 -164 315 -395 366 -84 18 -273 30 -360 22z m151 -35 c43
-30 64 -66 90 -149 19 -63 23 -98 23 -225 1 -134 -1 -154 -20 -185 -32 -56
-60 -64 -224 -65 l-145 0 -3 145 c-7 342 70 525 212 505 21 -3 52 -15 67 -26z"/>
<path d="M11485 1655 c-5 -2 -36 -11 -67 -19 -70 -20 -157 -95 -183 -159 -41
-101 -11 -224 70 -294 73 -63 117 -78 230 -77 114 1 159 17 233 79 65 56 87
105 87 197 -1 70 -3 80 -35 127 -19 29 -57 67 -85 85 -67 44 -203 77 -250 61z"/>
</g>
</svg>
