<?xml version="1.0" standalone="no"?>
<!DOCTYPE svg PUBLIC "-//W3C//DTD SVG 20010904//EN"
 "http://www.w3.org/TR/2001/REC-SVG-20010904/DTD/svg10.dtd">
<svg version="1.0" xmlns="http://www.w3.org/2000/svg"
 width="1772.000000pt" height="1772.000000pt" viewBox="0 0 1772.000000 1772.000000"
 preserveAspectRatio="xMidYMid meet">
<metadata>
Created by potrace 1.16, written by Peter Selinger 2001-2019
</metadata>
<g transform="translate(0.000000,1772.000000) scale(0.100000,-0.100000)"
fill="#000000" stroke="none">
<path d="M8340 16909 c-877 -57 -1752 -260 -2550 -589 -1348 -556 -2510 -1458
-3389 -2630 -946 -1262 -1489 -2741 -1591 -4335 -13 -206 -13 -784 0 -990 116
-1816 804 -3479 2004 -4845 233 -265 601 -623 881 -855 1332 -1108 2932 -1744
4670 -1855 206 -13 784 -13 990 0 2018 129 3856 970 5265 2406 1367 1394 2164
3188 2290 5149 5 88 10 311 10 495 0 341 -8 533 -36 810 -221 2246 -1384 4298
-3209 5661 -1254 936 -2735 1477 -4320 1579 -184 12 -831 11 -1015 -1z m-1620
-5102 c433 -108 874 -496 1252 -1102 231 -371 499 -869 998 -1855 485 -959
626 -1219 747 -1381 40 -53 48 -59 55 -43 13 33 920 3857 929 3919 24 169 -45
317 -176 377 -48 22 -62 23 -347 26 l-298 3 0 40 0 39 940 0 940 0 0 -40 0
-40 -238 0 c-264 0 -311 -7 -416 -63 -38 -20 -96 -66 -152 -122 -72 -71 -99
-106 -127 -165 -31 -65 -135 -487 -760 -3105 l-723 -3030 -470 -3 -469 -2 -79
157 c-114 227 -438 901 -911 1893 -573 1201 -669 1398 -986 2030 -472 942
-731 1416 -967 1774 -212 322 -519 602 -691 631 -40 7 -41 8 -41 46 l0 40 963
-4 c844 -3 970 -6 1027 -20z m5360 -4602 c454 -100 791 -397 896 -791 28 -103
25 -340 -5 -449 -114 -419 -508 -734 -997 -796 -145 -18 -373 -7 -500 25 -416
103 -732 400 -836 785 -30 110 -29 333 1 446 109 404 488 722 950 795 87 14
403 4 491 -15z"/>
</g>
</svg>
